<?xml version="1.0" encoding="utf-8" standalone="no"?><!DOCTYPE svg PUBLIC "-//W3C//DTD SVG 20010904//EN" "http://www.w3.org/TR/2001/REC-SVG-20010904/DTD/svg10.dtd"><svg xmlns="http://www.w3.org/2000/svg" width="474" height="201" xmlns:xlink="http://www.w3.org/1999/xlink"><source><![CDATA[participant C
participant B
participant A
Note right of A: By listing the participants\n you can change their order]]></source><desc style="-webkit-tap-highlight-color: rgba(0, 0, 0, 0);">Created with Raphaël 2.1.2</desc><defs style="-webkit-tap-highlight-color: rgba(0, 0, 0, 0);"></defs><path fill="#ffffff" stroke="#000000" d="M10,20C27.947526018752537,21.444464125057415,40.13652353795586,18.555535874942585,46.111603126435384,20C47.470722295793195,42.29922827044418,44.75248395707757,23.11083376332077,46.111603126435384,53.97797923394532C28.32469088365042,55.422443359002735,11.819116900744923,52.533515108887904,10,53.97797923394532C11.359119169357813,32.48398079839415,8.640880830642187,27.943392235401085,10,20" stroke-width="2" style="-webkit-tap-highlight-color: rgba(0, 0, 0, 0);"></path><rect x="20" y="31.05706054667787" width="16.111603126435384" height="11.863858140589567" rx="0" ry="0" fill="#ffffff" stroke="none" style="-webkit-tap-highlight-color: rgba(0, 0, 0, 0);"></rect><path fill="#000000" stroke="none" d="M21.88938090421316,37.98667832445565C21.356047570879827,41.32001165778898,26.156047570879824,41.36445610223343,29.26715868199094,41.142233880011204C29.26715868199094,41.142233880011204,35.71160312643538,40.69778943556676,35.71160312643538,40.69778943556676C36.111603126435384,40.78667832445565,36.111603126435384,40.92001165778899,36.111603126435384,41.49778943556676C34.46715868199094,42.29778943556676,32.3338253486576,42.74223388001121,31.26715868199094,42.47556721334454C30.46715868199094,42.92001165778899,29.17826979310205,42.92001165778899,28.11160312643538,42.92001165778899C26.822714237546496,42.92001165778899,25.08938090421316,42.96445610223343,23.444936459768716,42.431122768900096C23.17826979310205,42.38667832445565,23.000492015324273,42.29778943556676,23.000492015324273,42.07556721334454C21.533825348657604,41.49778943556676,20.86715868199094,40.60890054667787,20.067158681990936,39.45334499112232C19.222714237546494,34.38667832445565,26.55604757087983,32.78667832445565,30.02271423754649,31.58667832445565C31.57826979310205,31.58667832445565,33.93382534865761,30.208900546677874,34.42271423754649,31.89778943556676C34.37826979310205,33.186678324455656,32.24493645976871,32.520011657788984,31.044936459768717,33.142233880011204C28.600492015324267,33.49778943556676,25.933825348657603,34.69778943556676,23.26715868199094,36.29778943556676C22.689380904213163,36.653344991122324,22.244936459768713,37.23112276890009,21.88938090421316,37.98667832445565C21.88938090421316,37.98667832445565,21.88938090421316,37.98667832445565,21.88938090421316,37.98667832445565" style="-webkit-tap-highlight-color: rgba(0, 0, 0, 0);"></path><path fill="#ffffff" stroke="#000000" d="M10,147.87684098362212C24.314253498629025,146.4323768585647,21.110919484438128,149.32130510867952,46.111603126435384,147.87684098362212C44.75248395707757,178.07928784804164,47.470722295793195,159.05020970119,46.111603126435384,181.85482021756744C38.86246177930554,183.29928434262484,39.65269096763142,180.41035609251003,10,181.85482021756744C11.359119169357813,170.45212555263305,8.640880830642187,150.8827484000784,10,147.87684098362212" stroke-width="2" style="-webkit-tap-highlight-color: rgba(0, 0, 0, 0);"></path><rect x="20" y="158.93390153030003" width="16.111603126435384" height="11.863858140589542" rx="0" ry="0" fill="#ffffff" stroke="none" style="-webkit-tap-highlight-color: rgba(0, 0, 0, 0);"></rect><path fill="#000000" stroke="none" d="M21.88938090421316,165.8635193080778C21.356047570879827,169.1968526414111,26.156047570879824,169.24129708585554,29.26715868199094,169.01907486363336C29.26715868199094,169.01907486363336,35.71160312643538,168.5746304191889,35.71160312643538,168.5746304191889C36.111603126435384,168.66351930807775,36.111603126435384,168.79685264141114,36.111603126435384,169.37463041918892C34.46715868199094,170.17463041918887,32.3338253486576,170.61907486363333,31.26715868199094,170.35240819696668C30.46715868199094,170.79685264141114,29.17826979310205,170.79685264141114,28.11160312643538,170.79685264141114C26.822714237546496,170.79685264141114,25.08938090421316,170.84129708585556,23.444936459768716,170.3079637525222C23.17826979310205,170.26351930807778,23.000492015324273,170.17463041918887,23.000492015324273,169.95240819696664C21.533825348657604,169.37463041918892,20.86715868199094,168.4857415303,20.067158681990936,167.33018597474444C19.222714237546494,162.26351930807778,26.55604757087983,160.66351930807775,30.02271423754649,159.46351930807776C31.57826979310205,159.46351930807776,33.93382534865761,158.08574153030003,34.42271423754649,159.7746304191889C34.37826979310205,161.0635193080778,32.24493645976871,160.3968526414111,31.044936459768717,161.0190748636333C28.600492015324267,161.37463041918892,25.933825348657603,162.5746304191889,23.26715868199094,164.17463041918887C22.689380904213163,164.53018597474443,22.244936459768713,165.1079637525222,21.88938090421316,165.8635193080778C21.88938090421316,165.8635193080778,21.88938090421316,165.8635193080778,21.88938090421316,165.8635193080778" style="-webkit-tap-highlight-color: rgba(0, 0, 0, 0);"></path><path fill="none" stroke="#000000" d="M28.055801563217692,53.97797923394532C31.811756033204762,96.98938462184441,24.29984709323062,58.976261570932294,28.055801563217692,147.87684098362212" stroke-width="2" style="-webkit-tap-highlight-color: rgba(0, 0, 0, 0);"></path><path fill="#ffffff" stroke="#000000" d="M66.11160312643538,20C79.22058568034484,21.418105259077123,102.5816524911836,18.581894740922877,101.56423460336345,20C102.92335377272126,24.403869496091986,100.20511543400563,27.41542964550232,101.56423460336345,53.97797923394532C67.70741459702215,55.39608449302244,81.04598863135189,52.5598739748682,66.11160312643538,53.97797923394532C67.4707222957932,29.07443927288508,64.75248395707757,19.12014344985429,66.11160312643538,20" stroke-width="2" style="-webkit-tap-highlight-color: rgba(0, 0, 0, 0);"></path><rect x="76.1116031264354" y="29.999999999999996" width="15.452631476928062" height="13.977979233945323" rx="0" ry="0" fill="#ffffff" stroke="none" style="-webkit-tap-highlight-color: rgba(0, 0, 0, 0);"></rect><path fill="#000000" stroke="none" d="M87.3116031264354,35.594237765504005C89.13382534865762,36.03868220994845,92.42271423754651,37.10534887661512,91.35604757087984,39.63868220994845C91.08938090421317,39.77201554328178,90.73382534865762,40.17201554328178,90.5116031264354,40.527571098837335C88.86715868199096,41.37201554328178,88.28938090421317,42.03868220994845,87.71160312643539,41.63868220994845C87.3116031264354,42.08312665439289,87.17826979310206,42.127571098837336,86.20049201532429,42.216459987726225C86.20049201532429,42.216459987726225,86.33382534865763,42.08312665439289,86.33382534865763,42.08312665439289C86.15604757087985,41.905348876615115,85.8004920153243,41.905348876615115,85.53382534865761,42.08312665439289C85.53382534865761,42.08312665439289,85.62271423754652,42.17201554328178,85.75604757087984,42.26090443217067C84.8227142375465,42.88312665439289,84.60049201532429,42.527571098837335,83.8004920153243,42.92757109883733C83.6227142375465,42.92757109883733,83.48938090421318,42.838682209948445,83.44493645976873,42.70534887661511C83.17826979310206,43.194237765504006,82.55604757087984,42.48312665439289,82.64493645976873,43.194237765504006C81.04493645976873,43.37201554328178,78.60049201532429,44.74979332105956,77.57826979310207,43.37201554328178C77.26715868199095,40.61645998772622,77.13382534865762,37.23868220994845,77.75604757087984,34.527571098837335C77.71160312643539,33.68312665439289,76.1116031264354,34.61645998772622,76.1116031264354,33.32757109883734C76.1116031264354,32.972015543281785,76.20049201532429,32.749793321059556,76.37826979310206,32.66090443217067C79.40049201532429,31.283126654392895,86.64493645976873,28.57201554328178,90.20049201532429,30.927571098837333C90.55604757087984,31.460904432170672,90.73382534865762,31.816459987726226,90.73382534865762,32.03868220994845C90.37826979310206,33.905348876615115,89.3116031264354,34.216459987726225,87.3116031264354,35.594237765504005C87.3116031264354,35.594237765504005,87.3116031264354,35.594237765504005,87.3116031264354,35.594237765504005M79.44493645976873,36.438682209948446C82.64493645976873,35.68312665439289,85.44493645976873,34.70534887661511,87.62271423754652,33.32757109883734C88.5116031264354,32.749793321059556,89.00049201532428,32.30534887661511,89.00049201532428,32.127571098837336C89.04493645976873,31.86090443217067,87.66715868199095,31.54979332105956,87.3116031264354,31.594237765504005C84.9116031264354,31.594237765504005,82.15604757087985,32.17201554328178,79.04493645976873,33.41645998772623C79.53382534865761,34.34979332105956,79.08938090421317,35.54979332105956,79.44493645976873,36.438682209948446C79.44493645976873,36.438682209948446,79.44493645976873,36.438682209948446,79.44493645976873,36.438682209948446M87.57826979310207,41.63868220994845C87.57826979310207,41.46090443217067,87.71160312643539,41.37201554328178,87.40049201532429,41.41645998772623C87.40049201532429,41.46090443217067,87.44493645976873,41.505348876615116,87.57826979310207,41.63868220994845C87.57826979310207,41.63868220994845,87.57826979310207,41.63868220994845,87.57826979310207,41.63868220994845M85.3116031264354,37.32757109883734C83.8004920153243,37.63868220994845,81.13382534865762,38.394237765504,79.13382534865762,37.994237765504C78.86715868199096,38.88312665439289,78.95604757087985,40.48312665439289,78.95604757087985,41.63868220994845C78.95604757087985,42.92757109883733,80.86715868199096,41.68312665439289,81.44493645976873,41.72757109883734C83.57826979310207,41.23868220994845,86.24493645976874,40.61645998772622,88.28938090421317,39.594237765504005C89.17826979310206,39.14979332105956,89.71160312643539,38.838682209948445,89.71160312643539,38.48312665439289C89.71160312643539,37.68312665439289,88.24493645976874,37.32757109883734,85.3116031264354,37.32757109883734C85.3116031264354,37.32757109883734,85.3116031264354,37.32757109883734,85.3116031264354,37.32757109883734M84.60049201532429,42.66090443217067C84.86715868199096,42.70534887661511,84.86715868199096,42.57201554328178,84.8227142375465,42.34979332105956C84.68938090421318,42.438682209948446,84.5116031264354,42.438682209948446,84.60049201532429,42.66090443217067C84.60049201532429,42.66090443217067,84.60049201532429,42.66090443217067,84.60049201532429,42.66090443217067" style="-webkit-tap-highlight-color: rgba(0, 0, 0, 0);"></path><path fill="#ffffff" stroke="#000000" d="M66.11160312643538,147.87684098362212C91.38777095892567,149.29494624269924,77.31882347780815,146.458735724545,101.56423460336345,147.87684098362212C100.20511543400563,150.08567885634258,102.92335377272126,157.03339509631599,101.56423460336345,181.85482021756744C79.19352868632961,180.4367149584903,81.04005202179336,183.27292547664456,66.11160312643538,181.85482021756744C64.75248395707757,147.87248540989285,67.4707222957932,154.2597171974812,66.11160312643538,147.87684098362212" stroke-width="2" style="-webkit-tap-highlight-color: rgba(0, 0, 0, 0);"></path><rect x="76.1116031264354" y="157.87684098362212" width="15.452631476928062" height="13.97797923394532" rx="0" ry="0" fill="#ffffff" stroke="none" style="-webkit-tap-highlight-color: rgba(0, 0, 0, 0);"></rect><path fill="#000000" stroke="none" d="M87.3116031264354,163.47107874912615C89.13382534865762,163.91552319357055,92.42271423754651,164.9821898602372,91.35604757087984,167.51552319357057C91.08938090421317,167.6488565269039,90.73382534865762,168.04885652690393,90.5116031264354,168.4044120824595C88.86715868199096,169.24885652690392,88.28938090421317,169.91552319357055,87.71160312643539,169.51552319357057C87.3116031264354,169.95996763801503,87.17826979310206,170.00441208245945,86.20049201532429,170.09330097134836C86.20049201532429,170.09330097134836,86.33382534865763,169.95996763801503,86.33382534865763,169.95996763801503C86.15604757087985,169.78218986023722,85.8004920153243,169.78218986023722,85.53382534865761,169.95996763801503C85.53382534865761,169.95996763801503,85.62271423754652,170.04885652690393,85.75604757087984,170.13774541579278C84.8227142375465,170.75996763801504,84.60049201532429,170.4044120824595,83.8004920153243,170.80441208245946C83.6227142375465,170.80441208245946,83.48938090421318,170.71552319357056,83.44493645976873,170.58218986023724C83.17826979310206,171.07107874912612,82.55604757087984,170.359967638015,82.64493645976873,171.07107874912612C81.04493645976873,171.24885652690392,78.60049201532429,172.62663430468166,77.57826979310207,171.24885652690392C77.26715868199095,168.49330097134833,77.13382534865762,165.1155231935706,77.75604757087984,162.4044120824595C77.71160312643539,161.559967638015,76.1116031264354,162.49330097134833,76.1116031264354,161.20441208245944C76.1116031264354,160.8488565269039,76.20049201532429,160.62663430468166,76.37826979310206,160.5377454157928C79.40049201532429,159.15996763801502,86.64493645976873,156.4488565269039,90.20049201532429,158.80441208245946C90.55604757087984,159.33774541579282,90.73382534865762,159.69330097134838,90.73382534865762,159.91552319357055C90.37826979310206,161.78218986023722,89.3116031264354,162.09330097134836,87.3116031264354,163.47107874912615C87.3116031264354,163.47107874912615,87.3116031264354,163.47107874912615,87.3116031264354,163.47107874912615M79.44493645976873,164.31552319357058C82.64493645976873,163.559967638015,85.44493645976873,162.58218986023724,87.62271423754652,161.20441208245944C88.5116031264354,160.62663430468166,89.00049201532428,160.18218986023726,89.00049201532428,160.00441208245945C89.04493645976873,159.7377454157928,87.66715868199095,159.42663430468167,87.3116031264354,159.47107874912615C84.9116031264354,159.47107874912615,82.15604757087985,160.04885652690393,79.04493645976873,161.29330097134834C79.53382534865761,162.22663430468168,79.08938090421317,163.42663430468167,79.44493645976873,164.31552319357058C79.44493645976873,164.31552319357058,79.44493645976873,164.31552319357058,79.44493645976873,164.31552319357058M87.57826979310207,169.51552319357057C87.57826979310207,169.33774541579277,87.71160312643539,169.24885652690392,87.40049201532429,169.29330097134834C87.40049201532429,169.33774541579277,87.44493645976873,169.38218986023725,87.57826979310207,169.51552319357057C87.57826979310207,169.51552319357057,87.57826979310207,169.51552319357057,87.57826979310207,169.51552319357057M85.3116031264354,165.20441208245944C83.8004920153243,165.51552319357057,81.13382534865762,166.2710787491261,79.13382534865762,165.87107874912613C78.86715868199096,166.75996763801504,78.95604757087985,168.359967638015,78.95604757087985,169.51552319357057C78.95604757087985,170.80441208245946,80.86715868199096,169.559967638015,81.44493645976873,169.60441208245948C83.57826979310207,169.1155231935706,86.24493645976874,168.49330097134833,88.28938090421317,167.47107874912615C89.17826979310206,167.0266343046817,89.71160312643539,166.71552319357056,89.71160312643539,166.359967638015C89.71160312643539,165.559967638015,88.24493645976874,165.20441208245944,85.3116031264354,165.20441208245944C85.3116031264354,165.20441208245944,85.3116031264354,165.20441208245944,85.3116031264354,165.20441208245944M84.60049201532429,170.5377454157928C84.86715868199096,170.58218986023724,84.86715868199096,170.4488565269039,84.8227142375465,170.22663430468168C84.68938090421318,170.31552319357058,84.5116031264354,170.31552319357058,84.60049201532429,170.5377454157928C84.60049201532429,170.5377454157928,84.60049201532429,170.5377454157928,84.60049201532429,170.5377454157928" style="-webkit-tap-highlight-color: rgba(0, 0, 0, 0);"></path><path fill="none" stroke="#000000" d="M83.83791886489942,53.97797923394532C80.08196439491235,123.39649733087353,87.5938733348865,108.83929080349154,83.83791886489942,147.87684098362212" stroke-width="2" style="-webkit-tap-highlight-color: rgba(0, 0, 0, 0);"></path><path fill="#ffffff" stroke="#000000" d="M121.56423460336345,20C124.61155215096872,21.28610167645228,150.1028302641698,18.71389832354772,153.71677651467044,20C155.07589568402827,37.605455426286056,152.35765734531262,51.59370171361368,153.71677651467044,53.97797923394532C131.1867150883042,55.2640809103976,124.9436808309,52.69187755749304,121.56423460336345,53.97797923394532C122.92335377272126,18.77637829073037,120.20511543400563,49.67522508175097,121.56423460336345,20" stroke-width="2" style="-webkit-tap-highlight-color: rgba(0, 0, 0, 0);"></path><rect x="131.56423460336345" y="30.21121183919488" width="12.152541911307026" height="13.555555555555557" rx="0" ry="0" fill="#ffffff" stroke="none" style="-webkit-tap-highlight-color: rgba(0, 0, 0, 0);"></rect><path fill="#000000" stroke="none" d="M135.62788762578157,40.30010072808377C134.60566540355933,39.85565628363933,133.89455429244822,41.98898961697266,133.31677651467044,42.966767394750434C132.96122095911488,43.2334340614171,132.96122095911488,43.2334340614171,132.33899873689268,43.76676739475044C131.36122095911492,43.45565628363933,131.31677651467044,42.12232295030599,132.16122095911487,41.58898961697266C132.472332070226,41.2334340614171,132.6501098480038,40.922322950306,132.82788762578156,40.56676739475044C132.82788762578156,40.56676739475044,132.78344318133713,40.61121183919488,132.78344318133713,40.61121183919488C132.16122095911487,39.45565628363933,133.80566540355932,39.32232295030599,134.16122095911487,38.83343406141711C134.20566540355935,38.78898961697266,134.82788762578156,37.54454517252822,135.31677651467044,37.2334340614171C136.07233207022603,35.85565628363933,137.05010984800379,34.655656283639324,137.71677651467047,33.14454517252821C138.42788762578158,32.255656283639325,138.60566540355933,30.87787850586155,139.53899873689267,30.21121183919488C140.82788762578156,30.433434061417103,141.05010984800379,32.966767394750434,141.53899873689267,34.30010072808377C141.9389987368927,37.14454517252821,142.472332070226,38.877878505861545,143.71677651467047,41.18898961697266C143.58344318133715,42.30010072808377,141.7612209591149,41.67787850586155,141.31677651467044,41.18898961697266C139.80566540355932,40.65565628363933,137.00566540355936,39.90010072808377,135.62788762578157,40.30010072808377C135.62788762578157,40.30010072808377,135.62788762578157,40.30010072808377,135.62788762578157,40.30010072808377M136.07233207022603,38.65565628363933C136.96122095911488,38.922322950306,139.62788762578157,39.100100728083774,141.00566540355936,39.411211839194884C141.272332070226,39.100100728083774,140.82788762578156,38.74454517252822,140.69455429244823,38.344545172528214C140.20566540355935,37.100100728083774,140.29455429244825,34.255656283639325,139.36122095911492,33.14454517252821C138.96122095911488,33.54454517252822,138.51677651467043,35.100100728083774,137.8501098480038,35.58898961697266C137.45010984800376,36.61121183919488,136.6501098480038,37.36676739475044,136.07233207022603,38.65565628363933C136.07233207022603,38.65565628363933,136.07233207022603,38.65565628363933,136.07233207022603,38.65565628363933" style="-webkit-tap-highlight-color: rgba(0, 0, 0, 0);"></path><path fill="#ffffff" stroke="#000000" d="M121.56423460336345,147.87684098362212C141.14785108801968,149.1629426600744,134.77020703399472,146.59073930716983,153.71677651467044,147.87684098362212C155.07589568402827,156.91529665379718,152.35765734531262,178.91982256990633,153.71677651467044,181.85482021756744C145.61449070885286,183.14092189401973,125.3981313753586,180.56871854111515,121.56423460336345,181.85482021756744C120.20511543400563,177.06764615088355,122.92335377272126,166.6629021642081,121.56423460336345,147.87684098362212" stroke-width="2" style="-webkit-tap-highlight-color: rgba(0, 0, 0, 0);"></path><rect x="131.56423460336345" y="158.08805282281702" width="12.152541911307026" height="13.555555555555543" rx="0" ry="0" fill="#ffffff" stroke="none" style="-webkit-tap-highlight-color: rgba(0, 0, 0, 0);"></rect><path fill="#000000" stroke="none" d="M135.62788762578157,168.17694171170592C134.60566540355933,167.73249726726146,133.89455429244822,169.8658306005948,133.31677651467044,170.84360837837255C132.96122095911488,171.11027504503926,132.96122095911488,171.11027504503926,132.33899873689268,171.64360837837256C131.36122095911492,171.33249726726143,131.31677651467044,169.99916393392812,132.16122095911487,169.4658306005948C132.472332070226,169.11027504503926,132.6501098480038,168.79916393392813,132.82788762578156,168.44360837837257C132.82788762578156,168.44360837837257,132.78344318133713,168.488052822817,132.78344318133713,168.488052822817C132.16122095911487,167.33249726726143,133.80566540355932,167.1991639339281,134.16122095911487,166.71027504503923C134.20566540355935,166.6658306005948,134.82788762578156,165.42138615615033,135.31677651467044,165.11027504503926C136.07233207022603,163.73249726726146,137.05010984800379,162.53249726726148,137.71677651467047,161.02138615615036C138.42788762578158,160.13249726726144,138.60566540355933,158.7547194894837,139.53899873689267,158.08805282281702C140.82788762578156,158.31027504503925,141.05010984800379,160.84360837837255,141.53899873689267,162.17694171170592C141.9389987368927,165.02138615615036,142.472332070226,166.7547194894837,143.71677651467047,169.06583060059478C143.58344318133715,170.17694171170592,141.7612209591149,169.55471948948366,141.31677651467044,169.06583060059478C139.80566540355932,168.53249726726148,137.00566540355936,167.7769417117059,135.62788762578157,168.17694171170592C135.62788762578157,168.17694171170592,135.62788762578157,168.17694171170592,135.62788762578157,168.17694171170592M136.07233207022603,166.53249726726148C136.96122095911488,166.79916393392813,139.62788762578157,166.97694171170588,141.00566540355936,167.288052822817C141.272332070226,166.97694171170588,140.82788762578156,166.62138615615032,140.69455429244823,166.22138615615034C140.20566540355935,164.97694171170588,140.29455429244825,162.13249726726144,139.36122095911492,161.02138615615036C138.96122095911488,161.42138615615033,138.51677651467043,162.97694171170588,137.8501098480038,163.4658306005948C137.45010984800376,164.488052822817,136.6501098480038,165.24360837837258,136.07233207022603,166.53249726726148C136.07233207022603,166.53249726726148,136.07233207022603,166.53249726726148,136.07233207022603,166.53249726726148" style="-webkit-tap-highlight-color: rgba(0, 0, 0, 0);"></path><path fill="none" stroke="#000000" d="M137.64050555901696,53.97797923394532C133.88455108902988,128.52644235662368,141.39646002900403,117.09418359478113,137.64050555901696,147.87684098362212" stroke-width="2" style="-webkit-tap-highlight-color: rgba(0, 0, 0, 0);"></path><path fill="#ffffff" stroke="#000000" d="M157.64050555901696,73.97797923394532C305.64642653123735,84.02683764699279,262.41214845736795,63.92912082089785,408.8619658852037,73.97797923394532C406.7060114152166,76.58837811121265,411.01792035519077,105.8191126931603,408.8619658852037,127.87684098362212C161.33434220327558,137.9256993966696,278.20842320927636,117.82798257057465,157.64050555901696,127.87684098362212C159.79646002900404,87.87495037708861,155.48455108902988,91.91234472243214,157.64050555901696,73.97797923394532" stroke-width="2" style="-webkit-tap-highlight-color: rgba(0, 0, 0, 0);"></path><rect x="162.6405055590169" y="78.97797923394532" width="241.2214603261868" height="43.8988617496768" rx="0" ry="0" fill="#ffffff" stroke="none" style="-webkit-tap-highlight-color: rgba(0, 0, 0, 0);"></rect><path fill="#000000" stroke="none" d="M173.8405055590169,84.80616606765354C175.66272778123908,85.25061051209799,178.95161667012798,86.31727717876466,177.8849500034613,88.85061051209799C177.61828333679466,88.98394384543133,177.2627277812391,89.38394384543132,177.04050555901688,89.73949940098687C175.39606111457243,90.58394384543132,174.81828333679465,91.25061051209799,174.24050555901687,90.85061051209799C173.8405055590169,91.29505495654243,173.70717222568356,91.33949940098688,172.72939444790575,91.42838828987577C172.72939444790575,91.42838828987577,172.86272778123907,91.29505495654243,172.86272778123907,91.29505495654243C172.68495000346132,91.11727717876465,172.32939444790577,91.11727717876465,172.06272778123912,91.29505495654243C172.06272778123912,91.29505495654243,172.15161667012796,91.38394384543132,172.2849500034613,91.4728327343202C171.351616670128,92.09505495654243,171.12939444790578,91.73949940098687,170.32939444790577,92.13949940098688C170.15161667012796,92.13949940098688,170.01828333679464,92.05061051209799,169.97383889235022,91.91727717876465C169.70717222568356,92.40616606765354,169.0849500034613,91.69505495654244,169.1738388923502,92.40616606765354C167.57383889235018,92.58394384543132,165.12939444790578,93.9617216232091,164.10717222568354,92.58394384543132C163.7960611145724,89.82838828987576,163.66272778123908,86.45061051209798,164.2849500034613,83.73949940098687C164.24050555901687,82.89505495654244,162.6405055590169,83.82838828987576,162.6405055590169,82.53949940098687C162.6405055590169,82.18394384543132,162.72939444790575,81.9617216232091,162.90717222568355,81.87283273432021C165.92939444790574,80.49505495654243,173.1738388923502,77.78394384543132,176.72939444790575,80.13949940098688C177.0849500034613,80.67283273432021,177.2627277812391,81.02838828987576,177.2627277812391,81.25061051209799C176.90717222568355,83.11727717876465,175.8405055590169,83.42838828987577,173.8405055590169,84.80616606765354C173.8405055590169,84.80616606765354,173.8405055590169,84.80616606765354,173.8405055590169,84.80616606765354M165.97383889235022,85.65061051209798C169.1738388923502,84.89505495654244,171.97383889235022,83.91727717876465,174.15161667012796,82.53949940098687C175.04050555901688,81.9617216232091,175.52939444790576,81.51727717876466,175.52939444790576,81.33949940098688C175.57383889235018,81.07283273432022,174.19606111457244,80.7617216232091,173.8405055590169,80.80616606765354C171.44050555901686,80.80616606765354,168.68495000346132,81.38394384543132,165.57383889235018,82.62838828987576C166.06272778123912,83.5617216232091,165.61828333679466,84.7617216232091,165.97383889235022,85.65061051209798C165.97383889235022,85.65061051209798,165.97383889235022,85.65061051209798,165.97383889235022,85.65061051209798M174.10717222568354,90.85061051209799C174.10717222568354,90.67283273432021,174.24050555901687,90.58394384543132,173.92939444790574,90.62838828987576C173.92939444790574,90.67283273432021,173.97383889235022,90.71727717876465,174.10717222568354,90.85061051209799C174.10717222568354,90.85061051209799,174.10717222568354,90.85061051209799,174.10717222568354,90.85061051209799M171.8405055590169,86.53949940098687C170.32939444790577,86.85061051209799,167.66272778123908,87.60616606765355,165.66272778123908,87.20616606765354C165.39606111457243,88.09505495654243,165.48495000346134,89.69505495654244,165.48495000346134,90.85061051209799C165.48495000346134,92.13949940098688,167.39606111457243,90.89505495654244,167.97383889235022,90.93949940098688C170.10717222568354,90.45061051209798,172.77383889235023,89.82838828987576,174.81828333679465,88.80616606765354C175.70717222568356,88.36172162320909,176.24050555901687,88.05061051209799,176.24050555901687,87.69505495654244C176.24050555901687,86.89505495654244,174.77383889235023,86.53949940098687,171.8405055590169,86.53949940098687C171.8405055590169,86.53949940098687,171.8405055590169,86.53949940098687,171.8405055590169,86.53949940098687M171.12939444790578,91.87283273432021C171.39606111457243,91.91727717876465,171.39606111457243,91.78394384543132,171.351616670128,91.5617216232091C171.21828333679463,91.65061051209798,171.04050555901688,91.65061051209798,171.12939444790578,91.87283273432021C171.12939444790578,91.87283273432021,171.12939444790578,91.87283273432021,171.12939444790578,91.87283273432021M180.59606111457248,89.87283273432021C181.57383889235024,91.33949940098688,183.70717222568356,90.05061051209799,184.99606111457246,89.51727717876466C185.21828333679468,89.33949940098688,186.24050555901692,88.85061051209799,186.8182833367947,88.13949940098688C186.8182833367947,88.13949940098688,187.57383889235024,88.13949940098688,187.57383889235024,88.13949940098688C188.68495000346132,90.22838828987577,186.41828333679467,91.25061051209799,185.79606111457247,93.20616606765354C185.57383889235024,93.38394384543132,185.39606111457243,93.5617216232091,185.351616670128,94.13949940098688C184.6405055590169,94.67283273432021,184.86272778123913,95.60616606765355,184.15161667012802,96.40616606765354C183.9293944479058,97.20616606765354,183.61828333679466,98.31727717876466,183.12939444790578,99.5617216232091C183.08495000346136,99.51727717876466,183.04050555901688,101.07283273432022,182.32939444790577,100.85061051209799C181.79606111457247,100.89505495654244,181.351616670128,100.31727717876466,181.351616670128,99.82838828987576C182.24050555901692,96.71727717876466,182.41828333679467,96.93949940098688,184.37383889235025,91.9617216232091C182.28495000346135,92.67283273432021,179.4405055590169,92.31727717876466,179.21828333679468,90.22838828987577C178.7293944479058,89.65061051209798,178.90717222568355,87.4728327343202,179.57383889235024,87.4728327343202C180.37383889235025,87.4728327343202,180.551616670128,88.62838828987576,180.59606111457248,89.87283273432021C180.59606111457248,89.87283273432021,180.59606111457248,89.87283273432021,180.59606111457248,89.87283273432021M199.12939444790578,79.42838828987577C200.06272778123912,79.1617216232091,200.77383889235023,80.45061051209798,200.4627277812391,81.87283273432021C200.01828333679464,84.13949940098688,199.21828333679468,87.87283273432021,199.21828333679468,91.11727717876465C199.21828333679468,91.60616606765355,199.48495000346134,92.71727717876465,198.6405055590169,92.7617216232091C197.351616670128,92.53949940098687,197.30717222568353,90.62838828987576,197.52939444790576,89.07283273432022C197.52939444790576,89.07283273432022,198.77383889235023,81.20616606765354,198.77383889235023,81.20616606765354C198.50717222568358,80.45061051209798,198.81828333679465,79.91727717876465,199.12939444790578,79.42838828987577C199.12939444790578,79.42838828987577,199.12939444790578,79.42838828987577,199.12939444790578,79.42838828987577M203.48495000346128,83.4728327343202C203.7960611145724,84.2728327343202,203.8849500034613,84.49505495654243,203.2627277812391,85.1617216232091C202.24050555901687,84.89505495654244,202.32939444790577,84.36172162320909,202.77383889235017,83.5617216232091C202.86272778123907,83.5617216232091,203.12939444790572,83.51727717876466,203.48495000346128,83.4728327343202C203.48495000346128,83.4728327343202,203.48495000346128,83.4728327343202,203.48495000346128,83.4728327343202M202.24050555901687,92.45061051209798C201.44050555901686,91.51727717876466,201.8849500034613,89.20616606765354,202.1960611145724,87.73949940098687C202.50717222568352,87.29505495654243,203.0849500034613,87.38394384543132,203.21828333679463,88.00616606765354C203.1738388923502,89.60616606765355,203.52939444790576,91.20616606765354,203.12939444790572,92.62838828987576C202.77383889235017,92.71727717876465,202.77383889235017,92.62838828987576,202.24050555901687,92.45061051209798C202.24050555901687,92.45061051209798,202.24050555901687,92.45061051209798,202.24050555901687,92.45061051209798M211.12939444790572,86.05061051209799C211.97383889235016,86.09505495654243,212.3293944479057,87.11727717876465,211.7071722256835,87.4728327343202C211.52939444790576,87.51727717876466,210.72939444790575,87.65061051209798,209.35161667012795,87.78394384543132C208.64050555901684,88.13949940098688,208.3738388923502,87.69505495654244,207.6182833367946,88.18394384543132C208.64050555901684,89.11727717876465,211.57383889235018,88.89505495654244,211.8849500034613,90.93949940098688C211.30717222568353,92.00616606765354,208.10717222568348,92.49505495654243,206.3738388923502,92.80616606765355C205.97383889235016,92.67283273432021,205.57383889235018,92.67283273432021,205.1738388923502,92.80616606765355C204.9071722256835,92.62838828987576,204.24050555901687,92.09505495654243,204.81828333679465,91.69505495654244C206.15161667012796,91.42838828987577,208.50717222568352,91.11727717876465,209.35161667012795,90.62838828987576C208.59606111457242,89.91727717876465,205.7960611145724,89.1617216232091,205.04050555901682,88.49505495654243C204.9071722256835,88.40616606765354,204.86272778123907,88.18394384543132,204.86272778123907,87.82838828987576C204.59606111457242,87.5617216232091,204.9960611145724,87.25061051209799,205.52939444790576,87.02838828987576C206.50717222568352,86.62838828987576,209.7071722256835,86.00616606765354,211.12939444790572,86.05061051209799C211.12939444790572,86.05061051209799,211.12939444790572,86.05061051209799,211.12939444790572,86.05061051209799M216.41828333679467,86.09505495654243C216.86272778123913,84.2728327343202,217.97383889235022,80.49505495654243,219.3071722256836,80.13949940098688C219.48495000346134,80.18394384543132,220.37383889235025,80.98394384543131,219.79606111457247,81.73949940098687C219.04050555901688,82.71727717876466,218.50717222568358,84.2728327343202,218.19606111457244,86.36172162320909C219.351616670128,86.71727717876466,220.41828333679467,86.05061051209799,221.4405055590169,86.58394384543132C222.06272778123912,86.58394384543132,222.41828333679467,86.71727717876466,222.41828333679467,86.98394384543133C222.37383889235025,87.82838828987576,220.4627277812391,87.78394384543132,219.88495000346137,88.00616606765354C219.4405055590169,88.05061051209799,217.8405055590169,88.00616606765354,217.48495000346134,88.45061051209798C217.04050555901688,89.51727717876466,217.3071722256836,91.42838828987577,216.59606111457248,92.80616606765355C215.66272778123914,92.67283273432021,215.4405055590169,92.85061051209799,215.4405055590169,91.91727717876465C215.4405055590169,91.51727717876466,215.52939444790582,90.31727717876466,215.79606111457247,88.31727717876466C215.12939444790578,87.73949940098687,212.19606111457244,88.71727717876466,212.37383889235025,87.11727717876465C212.551616670128,85.42838828987577,215.52939444790582,87.38394384543132,216.41828333679467,86.09505495654243C216.41828333679467,86.09505495654243,216.41828333679467,86.09505495654243,216.41828333679467,86.09505495654243M224.01828333679464,83.4728327343202C224.32939444790577,84.2728327343202,224.41828333679467,84.49505495654243,223.79606111457247,85.1617216232091C222.77383889235023,84.89505495654244,222.86272778123913,84.36172162320909,223.30717222568353,83.5617216232091C223.39606111457243,83.5617216232091,223.66272778123908,83.51727717876466,224.01828333679464,83.4728327343202C224.01828333679464,83.4728327343202,224.01828333679464,83.4728327343202,224.01828333679464,83.4728327343202M222.77383889235023,92.45061051209798C221.97383889235022,91.51727717876466,222.41828333679467,89.20616606765354,222.72939444790575,87.73949940098687C223.04050555901688,87.29505495654243,223.61828333679466,87.38394384543132,223.751616670128,88.00616606765354C223.70717222568356,89.60616606765355,224.06272778123912,91.20616606765354,223.66272778123908,92.62838828987576C223.30717222568353,92.71727717876465,223.30717222568353,92.62838828987576,222.77383889235023,92.45061051209798C222.77383889235023,92.45061051209798,222.77383889235023,92.45061051209798,222.77383889235023,92.45061051209798M230.19606111457244,86.71727717876466C231.8405055590169,86.98394384543133,232.95161667012798,89.11727717876465,232.95161667012798,91.65061051209798C232.95161667012798,93.07283273432022,232.24050555901687,92.7617216232091,231.57383889235018,92.40616606765354C230.77383889235023,91.07283273432022,231.351616670128,90.40616606765354,230.59606111457242,88.62838828987576C228.95161667012798,88.05061051209799,227.44050555901686,91.07283273432022,226.50717222568352,91.51727717876466C225.61828333679466,91.38394384543132,224.77383889235023,89.78394384543132,225.57383889235018,88.7617216232091C225.66272778123908,88.22838828987577,225.70717222568356,88.09505495654243,226.06272778123912,87.42838828987577C226.59606111457242,87.07283273432022,226.95161667012798,87.91727717876465,227.351616670128,87.9617216232091C227.351616670128,87.9617216232091,230.19606111457244,86.71727717876466,230.19606111457244,86.71727717876466M239.30717222568353,88.45061051209798C240.64050555901684,89.65061051209798,240.24050555901687,91.78394384543132,240.64050555901684,93.65061051209798C240.10717222568354,95.02838828987576,240.15161667012796,96.58394384543132,239.04050555901688,98.22838828987577C237.61828333679466,100.2728327343202,234.3738388923502,101.91727717876465,231.61828333679466,99.9617216232091C230.24050555901687,99.02838828987576,229.44050555901686,98.67283273432021,229.35161667012795,96.62838828987576C229.26272778123905,94.98394384543133,232.77383889235017,94.40616606765354,234.72939444790575,94.09505495654243C236.3738388923502,93.82838828987576,237.751616670128,93.65061051209798,238.95161667012798,93.60616606765355C239.26272778123905,93.33949940098688,239.0849500034613,92.18394384543132,239.12939444790572,91.5617216232091C239.12939444790572,91.5617216232091,239.0849500034613,91.60616606765355,239.0849500034613,91.65061051209798C239.0849500034613,90.85061051209799,238.86272778123907,90.2728327343202,238.4627277812391,89.65061051209798C236.50717222568352,89.87283273432021,234.95161667012798,90.53949940098687,234.2849500034613,88.85061051209799C234.41828333679462,86.45061051209798,237.52939444790576,86.45061051209798,239.84050555901683,86.62838828987576C240.3738388923502,86.93949940098688,240.3738388923502,87.20616606765354,240.01828333679464,87.73949940098687C238.68495000346132,87.25061051209799,236.64050555901684,88.09505495654243,236.01828333679464,88.62838828987576C237.04050555901688,88.7617216232091,238.24050555901687,87.91727717876465,239.30717222568353,88.45061051209798C239.30717222568353,88.45061051209798,239.30717222568353,88.45061051209798,239.30717222568353,88.45061051209798M231.92939444790574,98.13949940098688C234.59606111457242,100.49505495654243,239.39606111457243,98.18394384543132,238.9960611145724,94.31727717876466C236.9071722256835,94.00616606765354,234.86272778123907,95.38394384543132,232.68495000346132,95.65061051209798C232.15161667012796,95.9617216232091,230.68495000346132,96.49505495654243,230.81828333679465,96.93949940098688C230.81828333679465,97.38394384543132,231.1738388923502,97.78394384543132,231.92939444790574,98.13949940098688C231.92939444790574,98.13949940098688,231.92939444790574,98.13949940098688,231.92939444790574,98.13949940098688M253.52939444790576,86.09505495654243C253.97383889235022,84.2728327343202,255.0849500034613,80.49505495654243,256.4182833367947,80.13949940098688C256.5960611145724,80.18394384543132,257.48495000346134,80.98394384543131,256.90717222568355,81.73949940098687C256.15161667012796,82.71727717876466,255.61828333679466,84.2728327343202,255.30717222568353,86.36172162320909C256.4627277812391,86.71727717876466,257.52939444790576,86.05061051209799,258.551616670128,86.58394384543132C259.1738388923502,86.58394384543132,259.52939444790576,86.71727717876466,259.52939444790576,86.98394384543133C259.48495000346134,87.82838828987576,257.5738388923502,87.78394384543132,256.99606111457246,88.00616606765354C256.551616670128,88.05061051209799,254.95161667012798,88.00616606765354,254.59606111457242,88.45061051209798C254.15161667012796,89.51727717876466,254.41828333679467,91.42838828987577,253.70717222568356,92.80616606765355C252.77383889235023,92.67283273432021,252.551616670128,92.85061051209799,252.551616670128,91.91727717876465C252.551616670128,91.51727717876466,252.6405055590169,90.31727717876466,252.90717222568355,88.31727717876466C252.24050555901687,87.73949940098687,249.30717222568353,88.71727717876466,249.48495000346134,87.11727717876465C249.66272778123908,85.42838828987577,252.6405055590169,87.38394384543132,253.52939444790576,86.09505495654243C253.52939444790576,86.09505495654243,253.52939444790576,86.09505495654243,253.52939444790576,86.09505495654243M262.81828333679465,78.98394384543131C263.30717222568353,78.89505495654244,263.2627277812391,79.82838828987576,263.30717222568353,79.87283273432021C262.81828333679465,82.18394384543132,261.52939444790576,85.78394384543132,260.951616670128,88.2728327343202C260.6849500034613,89.60616606765355,260.551616670128,89.91727717876465,260.551616670128,90.36172162320909C261.751616670128,90.36172162320909,265.5738388923502,88.85061051209799,266.90717222568355,88.85061051209799C268.77383889235017,88.85061051209799,268.2849500034613,90.93949940098688,268.64050555901684,92.36172162320909C268.64050555901684,92.53949940098687,268.4182833367946,93.11727717876465,267.92939444790574,93.07283273432022C268.10717222568354,93.1617216232091,268.4182833367946,93.20616606765354,268.10717222568354,93.33949940098688C267.0405055590169,93.29505495654243,266.8627277812391,91.82838828987576,266.9960611145724,90.49505495654243C266.951616670128,90.45061051209798,266.90717222568355,90.36172162320909,266.77383889235017,90.2728327343202C264.5071722256835,90.2728327343202,261.8849500034613,91.9617216232091,259.5738388923502,92.53949940098687C259.1738388923502,92.58394384543132,258.90717222568355,91.87283273432021,258.8627277812391,91.51727717876466C259.61828333679466,87.5617216232091,260.5960611145724,85.25061051209799,262.01828333679464,79.78394384543132C262.01828333679464,79.38394384543132,262.2849500034613,78.93949940098688,262.81828333679465,78.98394384543131C262.81828333679465,78.98394384543131,262.81828333679465,78.98394384543131,262.81828333679465,78.98394384543131M269.70717222568356,90.22838828987577C269.70717222568356,87.65061051209798,271.9738388923502,87.07283273432022,274.5960611145724,86.93949940098688C276.0627277812391,86.89505495654244,276.5960611145724,87.65061051209798,277.2182833367946,88.49505495654243C277.2627277812391,89.11727717876465,277.30717222568353,90.22838828987577,276.90717222568355,90.36172162320909C275.8405055590169,90.2728327343202,273.6627277812391,90.93949940098688,272.5071722256835,90.85061051209799C272.4182833367947,90.93949940098688,272.4182833367947,90.98394384543133,272.4182833367947,90.98394384543133C272.4182833367947,91.11727717876465,272.951616670128,91.33949940098688,274.0627277812391,91.65061051209798C274.9960611145724,91.65061051209798,277.1293944479058,92.05061051209799,275.44050555901686,92.62838828987576C275.0405055590169,93.25061051209799,273.92939444790574,92.89505495654244,272.951616670128,92.89505495654244C271.751616670128,92.67283273432021,269.70717222568356,91.65061051209798,269.70717222568356,90.22838828987577C269.70717222568356,90.22838828987577,269.70717222568356,90.22838828987577,269.70717222568356,90.22838828987577M274.9960611145724,88.22838828987577C274.01828333679464,88.31727717876466,271.9738388923502,88.45061051209798,272.10717222568354,89.38394384543132C273.1738388923502,89.29505495654243,275.0405055590169,89.60616606765355,275.61828333679466,89.11727717876465C275.39606111457243,88.53949940098687,275.5738388923502,88.53949940098687,274.9960611145724,88.22838828987577C274.9960611145724,88.22838828987577,274.9960611145724,88.22838828987577,274.9960611145724,88.22838828987577M289.2182833367946,93.38394384543132C288.77383889235017,93.91727717876465,288.8627277812391,98.58394384543132,288.15161667012796,99.69505495654244C287.4849500034613,99.78394384543132,287.30717222568353,99.69505495654244,286.8627277812391,99.11727717876465C286.8627277812391,95.73949940098687,287.26272778123905,94.09505495654243,287.84050555901683,90.58394384543132C288.4627277812391,89.38394384543132,289.3960611145724,90.31727717876466,289.4849500034613,91.1617216232091C289.4849500034613,91.51727717876466,289.35161667012795,92.09505495654243,289.1738388923502,92.85061051209799C289.26272778123905,92.93949940098688,289.30717222568353,92.93949940098688,289.35161667012795,92.93949940098688C290.5071722256835,92.53949940098687,294.5071722256835,91.4728327343202,294.951616670128,89.73949940098687C294.64050555901684,88.98394384543133,293.8849500034613,88.2728327343202,292.77383889235017,88.36172162320909C290.9960611145724,88.49505495654243,287.6182833367946,88.93949940098688,287.6182833367946,90.45061051209798C287.3960611145724,90.7617216232091,287.52939444790576,91.20616606765354,286.9071722256835,91.33949940098688C286.15161667012796,90.80616606765354,286.10717222568354,90.45061051209798,286.3738388923502,89.65061051209798C286.72939444790575,88.53949940098687,289.6627277812391,86.93949940098688,291.26272778123905,87.02838828987576C293.7071722256835,86.36172162320909,296.2849500034613,87.69505495654244,296.5071722256835,90.13949940098688C295.84050555901683,92.45061051209798,292.77383889235017,93.65061051209798,290.01828333679464,93.82838828987576C289.7960611145724,93.82838828987576,289.52939444790576,93.65061051209798,289.2182833367946,93.38394384543132C289.2182833367946,93.38394384543132,289.2182833367946,93.38394384543132,289.2182833367946,93.38394384543132M302.24050555901687,90.2728327343202C302.6849500034613,90.45061051209798,304.8627277812391,92.09505495654243,305.1293944479057,92.49505495654243C305.1738388923502,92.80616606765355,304.8627277812391,93.25061051209799,304.5960611145724,93.25061051209799C304.5960611145724,93.25061051209799,301.92939444790574,91.91727717876465,301.92939444790574,91.91727717876465C300.951616670128,92.00616606765354,300.06272778123906,92.85061051209799,299.0405055590169,92.7617216232091C297.5738388923502,92.93949940098688,296.01828333679464,89.78394384543132,298.3738388923502,89.1617216232091C300.1960611145724,87.9617216232091,302.64050555901684,87.42838828987577,303.2627277812391,89.5617216232091C303.2627277812391,89.82838828987576,303.0849500034613,90.09505495654243,302.77383889235017,90.2728327343202C301.30717222568353,89.1617216232091,299.7960611145724,90.05061051209799,298.8627277812391,90.80616606765354C299.30717222568353,91.51727717876466,301.5738388923502,90.00616606765354,302.24050555901687,90.2728327343202C302.24050555901687,90.2728327343202,302.24050555901687,90.2728327343202,302.24050555901687,90.2728327343202M316.1960611145724,87.5617216232091C316.2849500034613,88.53949940098687,316.4182833367946,88.00616606765354,315.5738388923502,88.58394384543132C312.32939444790577,88.2728327343202,308.1960611145724,87.5617216232091,307.84050555901683,91.07283273432022C307.4849500034613,91.33949940098688,307.7071722256835,91.9617216232091,307.4849500034613,92.67283273432021C306.1960611145724,93.11727717876465,305.7071722256835,92.2728327343202,306.01828333679464,90.62838828987576C306.2849500034613,89.25061051209799,306.32939444790577,87.5617216232091,307.44050555901686,88.18394384543132C310.01828333679464,86.53949940098687,310.3738388923502,86.31727717876466,315.2182833367946,87.33949940098688C315.35161667012795,87.5617216232091,315.8849500034613,87.51727717876466,316.1960611145724,87.5617216232091C316.1960611145724,87.5617216232091,316.1960611145724,87.5617216232091,316.1960611145724,87.5617216232091M319.39606111457243,86.09505495654243C319.8405055590169,84.2728327343202,320.951616670128,80.49505495654243,322.28495000346135,80.13949940098688C322.4627277812391,80.18394384543132,323.351616670128,80.98394384543131,322.7738388923502,81.73949940098687C322.01828333679464,82.71727717876466,321.48495000346134,84.2728327343202,321.1738388923502,86.36172162320909C322.32939444790577,86.71727717876466,323.39606111457243,86.05061051209799,324.4182833367947,86.58394384543132C325.0405055590169,86.58394384543132,325.39606111457243,86.71727717876466,325.39606111457243,86.98394384543133C325.351616670128,87.82838828987576,323.44050555901686,87.78394384543132,322.86272778123913,88.00616606765354C322.4182833367947,88.05061051209799,320.81828333679465,88.00616606765354,320.4627277812391,88.45061051209798C320.01828333679464,89.51727717876466,320.28495000346135,91.42838828987577,319.57383889235024,92.80616606765355C318.6405055590169,92.67283273432021,318.4182833367947,92.85061051209799,318.4182833367947,91.91727717876465C318.4182833367947,91.51727717876466,318.5071722256836,90.31727717876466,318.7738388923502,88.31727717876466C318.10717222568354,87.73949940098687,315.1738388923502,88.71727717876466,315.351616670128,87.11727717876465C315.52939444790576,85.42838828987577,318.5071722256836,87.38394384543132,319.39606111457243,86.09505495654243C319.39606111457243,86.09505495654243,319.39606111457243,86.09505495654243,319.39606111457243,86.09505495654243M326.9960611145724,83.4728327343202C327.30717222568353,84.2728327343202,327.39606111457243,84.49505495654243,326.7738388923502,85.1617216232091C325.751616670128,84.89505495654244,325.8405055590169,84.36172162320909,326.2849500034613,83.5617216232091C326.3738388923502,83.5617216232091,326.64050555901684,83.51727717876466,326.9960611145724,83.4728327343202C326.9960611145724,83.4728327343202,326.9960611145724,83.4728327343202,326.9960611145724,83.4728327343202M325.751616670128,92.45061051209798C324.951616670128,91.51727717876466,325.39606111457243,89.20616606765354,325.7071722256835,87.73949940098687C326.01828333679464,87.29505495654243,326.5960611145724,87.38394384543132,326.72939444790575,88.00616606765354C326.6849500034613,89.60616606765355,327.0405055590169,91.20616606765354,326.64050555901684,92.62838828987576C326.2849500034613,92.71727717876465,326.2849500034613,92.62838828987576,325.751616670128,92.45061051209798C325.751616670128,92.45061051209798,325.751616670128,92.45061051209798,325.751616670128,92.45061051209798M333.48495000346134,87.29505495654243C334.7738388923502,86.98394384543133,335.1293944479058,88.58394384543132,334.0182833367947,88.7617216232091C332.8182833367947,88.58394384543132,332.2405055590169,89.02838828987576,330.5071722256836,89.87283273432021C330.151616670128,90.05061051209799,329.9293944479058,90.36172162320909,329.79606111457247,90.85061051209799C331.1293944479058,92.2728327343202,333.8405055590169,90.98394384543133,335.75161667012804,91.33949940098688C335.9738388923503,91.91727717876465,335.3960611145725,92.49505495654243,334.7738388923502,92.18394384543132C332.5071722256836,93.29505495654243,328.5960611145725,93.42838828987577,328.1071722256836,90.85061051209799C328.37383889235025,88.62838828987576,331.17383889235026,87.20616606765354,333.48495000346134,87.29505495654243C333.48495000346134,87.29505495654243,333.48495000346134,87.29505495654243,333.48495000346134,87.29505495654243M339.17383889235015,83.4728327343202C339.4849500034613,84.2728327343202,339.5738388923502,84.49505495654243,338.951616670128,85.1617216232091C337.92939444790574,84.89505495654244,338.01828333679464,84.36172162320909,338.46272778123904,83.5617216232091C338.55161667012794,83.5617216232091,338.8182833367946,83.51727717876466,339.17383889235015,83.4728327343202C339.17383889235015,83.4728327343202,339.17383889235015,83.4728327343202,339.17383889235015,83.4728327343202M337.92939444790574,92.45061051209798C337.1293944479057,91.51727717876466,337.5738388923502,89.20616606765354,337.88495000346126,87.73949940098687C338.1960611145724,87.29505495654243,338.77383889235017,87.38394384543132,338.9071722256835,88.00616606765354C338.8627277812391,89.60616606765355,339.2182833367946,91.20616606765354,338.8182833367946,92.62838828987576C338.46272778123904,92.71727717876465,338.46272778123904,92.62838828987576,337.92939444790574,92.45061051209798C337.92939444790574,92.45061051209798,337.92939444790574,92.45061051209798,337.92939444790574,92.45061051209798M343.61828333679466,93.38394384543132C343.1738388923502,93.91727717876465,343.2627277812391,98.58394384543132,342.551616670128,99.69505495654244C341.8849500034613,99.78394384543132,341.70717222568356,99.69505495654244,341.2627277812391,99.11727717876465C341.2627277812391,95.73949940098687,341.6627277812391,94.09505495654243,342.24050555901687,90.58394384543132C342.86272778123913,89.38394384543132,343.7960611145724,90.31727717876466,343.8849500034613,91.1617216232091C343.8849500034613,91.51727717876466,343.751616670128,92.09505495654243,343.57383889235024,92.85061051209799C343.6627277812391,92.93949940098688,343.70717222568356,92.93949940098688,343.751616670128,92.93949940098688C344.90717222568355,92.53949940098687,348.90717222568355,91.4728327343202,349.351616670128,89.73949940098687C349.0405055590169,88.98394384543133,348.28495000346135,88.2728327343202,347.1738388923502,88.36172162320909C345.39606111457243,88.49505495654243,342.01828333679464,88.93949940098688,342.01828333679464,90.45061051209798C341.7960611145724,90.7617216232091,341.9293944479058,91.20616606765354,341.30717222568353,91.33949940098688C340.551616670128,90.80616606765354,340.5071722256836,90.45061051209798,340.7738388923502,89.65061051209798C341.1293944479058,88.53949940098687,344.0627277812391,86.93949940098688,345.6627277812391,87.02838828987576C348.10717222568354,86.36172162320909,350.6849500034613,87.69505495654244,350.90717222568355,90.13949940098688C350.24050555901687,92.45061051209798,347.1738388923502,93.65061051209798,344.4182833367947,93.82838828987576C344.19606111457244,93.82838828987576,343.9293944479058,93.65061051209798,343.61828333679466,93.38394384543132C343.61828333679466,93.38394384543132,343.61828333679466,93.38394384543132,343.61828333679466,93.38394384543132M356.6405055590169,90.2728327343202C357.08495000346136,90.45061051209798,359.2627277812391,92.09505495654243,359.52939444790576,92.49505495654243C359.57383889235024,92.80616606765355,359.2627277812391,93.25061051209799,358.99606111457246,93.25061051209799C358.99606111457246,93.25061051209799,356.32939444790577,91.91727717876465,356.32939444790577,91.91727717876465C355.351616670128,92.00616606765354,354.4627277812391,92.85061051209799,353.4405055590169,92.7617216232091C351.9738388923502,92.93949940098688,350.4182833367947,89.78394384543132,352.7738388923502,89.1617216232091C354.5960611145724,87.9617216232091,357.0405055590169,87.42838828987577,357.66272778123914,89.5617216232091C357.66272778123914,89.82838828987576,357.48495000346134,90.09505495654243,357.1738388923502,90.2728327343202C355.70717222568356,89.1617216232091,354.19606111457244,90.05061051209799,353.2627277812391,90.80616606765354C353.70717222568356,91.51727717876466,355.9738388923502,90.00616606765354,356.6405055590169,90.2728327343202C356.6405055590169,90.2728327343202,356.6405055590169,90.2728327343202,356.6405055590169,90.2728327343202M365.2182833367947,86.71727717876466C366.86272778123913,86.98394384543133,367.9738388923502,89.11727717876465,367.9738388923502,91.65061051209798C367.9738388923502,93.07283273432022,367.2627277812391,92.7617216232091,366.5960611145724,92.40616606765354C365.79606111457247,91.07283273432022,366.37383889235025,90.40616606765354,365.61828333679466,88.62838828987576C363.9738388923502,88.05061051209799,362.4627277812391,91.07283273432022,361.52939444790576,91.51727717876466C360.6405055590169,91.38394384543132,359.79606111457247,89.78394384543132,360.5960611145724,88.7617216232091C360.6849500034613,88.22838828987577,360.7293944479058,88.09505495654243,361.08495000346136,87.42838828987577C361.61828333679466,87.07283273432022,361.9738388923502,87.91727717876465,362.37383889235025,87.9617216232091C362.37383889235025,87.9617216232091,365.2182833367947,86.71727717876466,365.2182833367947,86.71727717876466M372.24050555901687,86.09505495654243C372.6849500034613,84.2728327343202,373.7960611145724,80.49505495654243,375.1293944479058,80.13949940098688C375.30717222568353,80.18394384543132,376.19606111457244,80.98394384543131,375.61828333679466,81.73949940098687C374.8627277812391,82.71727717876466,374.32939444790577,84.2728327343202,374.01828333679464,86.36172162320909C375.1738388923502,86.71727717876466,376.24050555901687,86.05061051209799,377.2627277812391,86.58394384543132C377.8849500034613,86.58394384543132,378.24050555901687,86.71727717876466,378.24050555901687,86.98394384543133C378.19606111457244,87.82838828987576,376.2849500034613,87.78394384543132,375.70717222568356,88.00616606765354C375.2627277812391,88.05061051209799,373.6627277812391,88.00616606765354,373.30717222568353,88.45061051209798C372.8627277812391,89.51727717876466,373.1293944479058,91.42838828987577,372.4182833367947,92.80616606765355C371.48495000346134,92.67283273432021,371.2627277812391,92.85061051209799,371.2627277812391,91.91727717876465C371.2627277812391,91.51727717876466,371.351616670128,90.31727717876466,371.61828333679466,88.31727717876466C370.951616670128,87.73949940098687,368.01828333679464,88.71727717876466,368.19606111457244,87.11727717876465C368.3738388923502,85.42838828987577,371.351616670128,87.38394384543132,372.24050555901687,86.09505495654243C372.24050555901687,86.09505495654243,372.24050555901687,86.09505495654243,372.24050555901687,86.09505495654243M383.9293944479058,86.05061051209799C384.7738388923502,86.09505495654243,385.1293944479058,87.11727717876465,384.5071722256836,87.4728327343202C384.3293944479058,87.51727717876466,383.5293944479058,87.65061051209798,382.151616670128,87.78394384543132C381.4405055590169,88.13949940098688,381.17383889235026,87.69505495654244,380.4182833367947,88.18394384543132C381.4405055590169,89.11727717876465,384.37383889235025,88.89505495654244,384.6849500034614,90.93949940098688C384.1071722256836,92.00616606765354,380.90717222568355,92.49505495654243,379.17383889235026,92.80616606765355C378.7738388923502,92.67283273432021,378.37383889235025,92.67283273432021,377.9738388923503,92.80616606765355C377.70717222568356,92.62838828987576,377.04050555901694,92.09505495654243,377.6182833367947,91.69505495654244C378.95161667012803,91.42838828987577,381.3071722256836,91.11727717876465,382.151616670128,90.62838828987576C381.3960611145725,89.91727717876465,378.5960611145725,89.1617216232091,377.8405055590169,88.49505495654243C377.70717222568356,88.40616606765354,377.66272778123914,88.18394384543132,377.66272778123914,87.82838828987576C377.3960611145725,87.5617216232091,377.79606111457247,87.25061051209799,378.3293944479058,87.02838828987576C379.3071722256836,86.62838828987576,382.5071722256836,86.00616606765354,383.9293944479058,86.05061051209799C383.9293944479058,86.05061051209799,383.9293944479058,86.05061051209799,383.9293944479058,86.05061051209799M172.37383889235025,111.8773216232091C173.351616670128,113.34398828987577,175.48495000346134,112.05509940098688,176.77383889235023,111.52176606765354C176.99606111457246,111.34398828987577,178.0182833367947,110.85509940098687,178.59606111457248,110.14398828987576C178.59606111457248,110.14398828987576,179.351616670128,110.14398828987576,179.351616670128,110.14398828987576C180.4627277812391,112.23287717876465,178.19606111457244,113.25509940098688,177.57383889235024,115.21065495654243C177.351616670128,115.3884327343202,177.1738388923502,115.56621051209798,177.12939444790578,116.14398828987576C176.41828333679467,116.6773216232091,176.6405055590169,117.61065495654243,175.9293944479058,118.41065495654243C175.70717222568356,119.21065495654243,175.39606111457243,120.32176606765354,174.90717222568355,121.56621051209798C174.86272778123913,121.52176606765354,174.81828333679465,123.0773216232091,174.10717222568354,122.85509940098687C173.57383889235024,122.89954384543132,173.12939444790578,122.32176606765354,173.12939444790578,121.83287717876465C174.0182833367947,118.72176606765355,174.19606111457244,118.94398828987576,176.15161667012802,113.96621051209799C174.06272778123912,114.6773216232091,171.21828333679468,114.32176606765354,170.99606111457246,112.23287717876465C170.50717222568358,111.65509940098687,170.68495000346132,109.4773216232091,171.351616670128,109.4773216232091C172.15161667012802,109.4773216232091,172.32939444790577,110.63287717876464,172.37383889235025,111.8773216232091C172.37383889235025,111.8773216232091,172.37383889235025,111.8773216232091,172.37383889235025,111.8773216232091M184.81828333679465,108.58843273432021C187.12939444790572,107.52176606765354,189.44050555901686,109.3884327343202,189.44050555901686,111.3884327343202C189.44050555901686,114.01065495654242,186.50717222568352,114.36621051209798,184.3738388923502,115.0773216232091C182.06272778123906,114.98843273432021,179.2627277812391,112.85509940098687,180.81828333679465,110.41065495654243C181.84050555901683,109.61065495654243,183.12939444790572,108.85509940098687,184.81828333679465,108.58843273432021C184.81828333679465,108.58843273432021,184.81828333679465,108.58843273432021,184.81828333679465,108.58843273432021M182.01828333679464,112.09954384543131C182.72939444790575,114.49954384543132,187.57383889235018,112.81065495654242,187.84050555901683,111.0773216232091C187.30717222568353,108.45509940098687,182.10717222568354,110.72176606765355,182.01828333679464,112.09954384543131C182.01828333679464,112.09954384543131,182.01828333679464,112.09954384543131,182.01828333679464,112.09954384543131M198.86272778123907,108.72176606765355C198.81828333679465,108.63287717876464,199.35161667012795,108.09954384543131,199.48495000346134,108.14398828987576C199.751616670128,108.14398828987576,199.92939444790574,108.45509940098687,199.92939444790574,109.12176606765354C199.7960611145724,110.89954384543132,198.90717222568355,111.61065495654243,198.15161667012796,112.76621051209798C197.57383889235018,113.61065495654243,195.39606111457243,114.6773216232091,194.01828333679464,114.6773216232091C191.04050555901688,114.58843273432021,189.0849500034613,111.34398828987577,190.86272778123907,108.76621051209798C192.01828333679464,108.63287717876464,191.7960611145724,110.05509940098688,191.7071722256835,110.94398828987576C191.66272778123908,112.14398828987576,192.86272778123907,112.89954384543132,194.24050555901687,112.81065495654242C196.06272778123906,112.72176606765353,198.3738388923502,110.36621051209798,198.86272778123907,108.72176606765355C198.86272778123907,108.72176606765355,198.86272778123907,108.72176606765355,198.86272778123907,108.72176606765355M214.06272778123906,109.29954384543132C215.35161667012795,108.98843273432021,215.7071722256835,110.58843273432021,214.59606111457242,110.76621051209798C213.39606111457243,110.58843273432021,212.81828333679465,111.03287717876465,211.0849500034613,111.8773216232091C210.72939444790575,112.05509940098688,210.50717222568352,112.36621051209798,210.3738388923502,112.85509940098687C211.7071722256835,114.27732162320909,214.41828333679462,112.98843273432021,216.32939444790577,113.34398828987577C216.551616670128,113.92176606765354,215.97383889235022,114.49954384543132,215.35161667012795,114.1884327343202C213.0849500034613,115.29954384543132,209.1738388923502,115.43287717876466,208.68495000346132,112.85509940098687C208.95161667012798,110.63287717876464,211.751616670128,109.21065495654243,214.06272778123906,109.29954384543132C214.06272778123906,109.29954384543132,214.06272778123906,109.29954384543132,214.06272778123906,109.29954384543132M222.50717222568358,112.27732162320909C222.95161667012803,112.45509940098687,225.12939444790578,114.09954384543131,225.39606111457243,114.49954384543132C225.4405055590169,114.81065495654244,225.12939444790578,115.25509940098688,224.86272778123913,115.25509940098688C224.86272778123913,115.25509940098688,222.19606111457244,113.92176606765354,222.19606111457244,113.92176606765354C221.21828333679468,114.01065495654242,220.32939444790577,114.85509940098687,219.3071722256836,114.76621051209798C217.8405055590169,114.94398828987576,216.28495000346135,111.78843273432021,218.6405055590169,111.16621051209799C220.4627277812391,109.96621051209799,222.90717222568355,109.43287717876466,223.52939444790582,111.56621051209798C223.52939444790582,111.83287717876465,223.351616670128,112.09954384543131,223.04050555901688,112.27732162320909C221.57383889235024,111.16621051209799,220.06272778123912,112.05509940098688,219.12939444790578,112.81065495654242C219.57383889235024,113.52176606765354,221.8405055590169,112.01065495654242,222.50717222568358,112.27732162320909C222.50717222568358,112.27732162320909,222.50717222568358,112.27732162320909,222.50717222568358,112.27732162320909M231.08495000346136,108.72176606765355C232.7293944479058,108.98843273432021,233.8405055590169,111.12176606765354,233.8405055590169,113.65509940098687C233.8405055590169,115.0773216232091,233.12939444790578,114.76621051209798,232.4627277812391,114.41065495654243C231.66272778123914,113.0773216232091,232.24050555901692,112.41065495654243,231.48495000346134,110.63287717876464C229.8405055590169,110.05509940098688,228.32939444790577,113.0773216232091,227.39606111457243,113.52176606765354C226.50717222568358,113.3884327343202,225.66272778123914,111.78843273432021,226.4627277812391,110.76621051209798C226.551616670128,110.23287717876465,226.59606111457248,110.09954384543131,226.95161667012803,109.43287717876466C227.48495000346134,109.0773216232091,227.8405055590169,109.92176606765354,228.24050555901692,109.96621051209799C228.24050555901692,109.96621051209799,231.08495000346136,108.72176606765355,231.08495000346136,108.72176606765355M247.97383889235016,109.29954384543132C249.26272778123905,108.98843273432021,249.6182833367946,110.58843273432021,248.50717222568352,110.76621051209798C247.30717222568353,110.58843273432021,246.72939444790575,111.03287717876465,244.9960611145724,111.8773216232091C244.64050555901684,112.05509940098688,244.41828333679462,112.36621051209798,244.2849500034613,112.85509940098687C245.6182833367946,114.27732162320909,248.3293944479057,112.98843273432021,250.24050555901687,113.34398828987577C250.4627277812391,113.92176606765354,249.8849500034613,114.49954384543132,249.26272778123905,114.1884327343202C246.9960611145724,115.29954384543132,243.0849500034613,115.43287717876466,242.59606111457242,112.85509940098687C242.86272778123907,110.63287717876464,245.66272778123908,109.21065495654243,247.97383889235016,109.29954384543132C247.97383889235016,109.29954384543132,247.97383889235016,109.29954384543132,247.97383889235016,109.29954384543132M255.351616670128,100.9884327343202C255.8405055590169,100.89954384543132,255.79606111457247,101.83287717876465,255.8405055590169,101.8773216232091C255.351616670128,104.1884327343202,254.06272778123912,107.78843273432021,253.48495000346134,110.27732162320909C253.21828333679468,111.61065495654243,253.08495000346136,111.92176606765354,253.08495000346136,112.36621051209798C254.28495000346135,112.36621051209798,258.10717222568354,110.85509940098687,259.4405055590169,110.85509940098687C261.30717222568353,110.85509940098687,260.81828333679465,112.94398828987576,261.1738388923502,114.36621051209798C261.1738388923502,114.54398828987576,260.951616670128,115.12176606765354,260.4627277812391,115.0773216232091C260.6405055590169,115.16621051209799,260.951616670128,115.21065495654243,260.6405055590169,115.34398828987577C259.57383889235024,115.29954384543132,259.39606111457243,113.83287717876465,259.52939444790576,112.49954384543132C259.48495000346134,112.45509940098687,259.4405055590169,112.36621051209798,259.30717222568353,112.27732162320909C257.0405055590169,112.27732162320909,254.41828333679467,113.96621051209799,252.10717222568354,114.54398828987576C251.70717222568356,114.58843273432021,251.4405055590169,113.8773216232091,251.39606111457243,113.52176606765354C252.15161667012802,109.56621051209798,253.12939444790578,107.25509940098688,254.551616670128,101.78843273432021C254.551616670128,101.3884327343202,254.81828333679465,100.94398828987576,255.351616670128,100.9884327343202C255.351616670128,100.9884327343202,255.351616670128,100.9884327343202,255.351616670128,100.9884327343202M267.57383889235024,112.27732162320909C268.0182833367947,112.45509940098687,270.19606111457244,114.09954384543131,270.4627277812391,114.49954384543132C270.5071722256836,114.81065495654244,270.19606111457244,115.25509940098688,269.9293944479058,115.25509940098688C269.9293944479058,115.25509940098688,267.2627277812391,113.92176606765354,267.2627277812391,113.92176606765354C266.28495000346135,114.01065495654242,265.39606111457243,114.85509940098687,264.37383889235025,114.76621051209798C262.90717222568355,114.94398828987576,261.351616670128,111.78843273432021,263.70717222568356,111.16621051209799C265.52939444790576,109.96621051209799,267.9738388923502,109.43287717876466,268.5960611145725,111.56621051209798C268.5960611145725,111.83287717876465,268.4182833367947,112.09954384543131,268.10717222568354,112.27732162320909C266.6405055590169,111.16621051209799,265.1293944479058,112.05509940098688,264.19606111457244,112.81065495654242C264.6405055590169,113.52176606765354,266.90717222568355,112.01065495654242,267.57383889235024,112.27732162320909C267.57383889235024,112.27732162320909,267.57383889235024,112.27732162320909,267.57383889235024,112.27732162320909M276.151616670128,108.72176606765355C277.79606111457247,108.98843273432021,278.90717222568355,111.12176606765354,278.90717222568355,113.65509940098687C278.90717222568355,115.0773216232091,278.19606111457244,114.76621051209798,277.52939444790576,114.41065495654243C276.7293944479058,113.0773216232091,277.3071722256836,112.41065495654243,276.551616670128,110.63287717876464C274.90717222568355,110.05509940098688,273.39606111457243,113.0773216232091,272.4627277812391,113.52176606765354C271.57383889235024,113.3884327343202,270.7293944479058,111.78843273432021,271.52939444790576,110.76621051209798C271.61828333679466,110.23287717876465,271.66272778123914,110.09954384543131,272.0182833367947,109.43287717876466C272.551616670128,109.0773216232091,272.90717222568355,109.92176606765354,273.3071722256836,109.96621051209799C273.3071722256836,109.96621051209799,276.151616670128,108.72176606765355,276.151616670128,108.72176606765355M285.2627277812391,110.45509940098687C286.5960611145724,111.65509940098687,286.19606111457244,113.78843273432021,286.5960611145724,115.65509940098687C286.0627277812391,117.03287717876465,286.10717222568354,118.58843273432021,284.99606111457246,120.23287717876465C283.57383889235024,122.27732162320909,280.32939444790577,123.92176606765354,277.57383889235024,121.96621051209799C276.19606111457244,121.03287717876465,275.39606111457243,120.6773216232091,275.30717222568353,118.63287717876464C275.2182833367946,116.98843273432021,278.72939444790575,116.41065495654243,280.6849500034613,116.09954384543131C282.32939444790577,115.83287717876465,283.70717222568356,115.65509940098687,284.90717222568355,115.61065495654243C285.2182833367947,115.34398828987577,285.0405055590169,114.1884327343202,285.0849500034613,113.56621051209798C285.0849500034613,113.56621051209798,285.0405055590169,113.61065495654243,285.0405055590169,113.65509940098687C285.0405055590169,112.85509940098687,284.81828333679465,112.27732162320909,284.4182833367947,111.65509940098687C282.4627277812391,111.8773216232091,280.90717222568355,112.54398828987576,280.24050555901687,110.85509940098687C280.3738388923502,108.45509940098687,283.48495000346134,108.45509940098687,285.7960611145724,108.63287717876464C286.32939444790577,108.94398828987576,286.32939444790577,109.21065495654243,285.9738388923502,109.74398828987576C284.6405055590169,109.25509940098688,282.5960611145724,110.09954384543131,281.9738388923502,110.63287717876464C282.99606111457246,110.76621051209798,284.19606111457244,109.92176606765354,285.2627277812391,110.45509940098687C285.2627277812391,110.45509940098687,285.2627277812391,110.45509940098687,285.2627277812391,110.45509940098687M277.8849500034613,120.14398828987576C280.551616670128,122.49954384543132,285.351616670128,120.1884327343202,284.951616670128,116.32176606765354C282.8627277812391,116.01065495654242,280.81828333679465,117.3884327343202,278.6405055590169,117.65509940098687C278.10717222568354,117.96621051209799,276.6405055590169,118.49954384543132,276.7738388923502,118.94398828987576C276.7738388923502,119.3884327343202,277.1293944479058,119.78843273432021,277.8849500034613,120.14398828987576C277.8849500034613,120.14398828987576,277.8849500034613,120.14398828987576,277.8849500034613,120.14398828987576M287.9293944479058,112.23287717876465C287.9293944479058,109.65509940098687,290.19606111457244,109.0773216232091,292.81828333679465,108.94398828987576C294.28495000346135,108.89954384543132,294.81828333679465,109.65509940098687,295.44050555901686,110.49954384543132C295.48495000346134,111.12176606765354,295.52939444790576,112.23287717876465,295.1293944479058,112.36621051209798C294.0627277812391,112.27732162320909,291.8849500034613,112.94398828987576,290.72939444790575,112.85509940098687C290.6405055590169,112.94398828987576,290.6405055590169,112.98843273432021,290.6405055590169,112.98843273432021C290.6405055590169,113.12176606765354,291.1738388923502,113.34398828987577,292.28495000346135,113.65509940098687C293.2182833367946,113.65509940098687,295.351616670128,114.05509940098688,293.6627277812391,114.63287717876464C293.2627277812391,115.25509940098688,292.15161667012796,114.89954384543132,291.1738388923502,114.89954384543132C289.9738388923502,114.6773216232091,287.9293944479058,113.65509940098687,287.9293944479058,112.23287717876465C287.9293944479058,112.23287717876465,287.9293944479058,112.23287717876465,287.9293944479058,112.23287717876465M293.2182833367946,110.23287717876465C292.24050555901687,110.32176606765354,290.19606111457244,110.45509940098687,290.32939444790577,111.3884327343202C291.39606111457243,111.29954384543132,293.2627277812391,111.61065495654243,293.8405055590169,111.12176606765354C293.61828333679466,110.54398828987576,293.7960611145724,110.54398828987576,293.2182833367946,110.23287717876465C293.2182833367946,110.23287717876465,293.2182833367946,110.23287717876465,293.2182833367946,110.23287717876465M307.57383889235024,108.09954384543131C308.0182833367947,106.27732162320909,309.1293944479058,102.49954384543132,310.46272778123915,102.14398828987576C310.6405055590169,102.1884327343202,311.5293944479058,102.9884327343202,310.95161667012803,103.74398828987576C310.19606111457244,104.72176606765355,309.66272778123914,106.27732162320909,309.351616670128,108.36621051209798C310.5071722256836,108.72176606765355,311.57383889235024,108.05509940098688,312.5960611145725,108.58843273432021C313.2182833367947,108.58843273432021,313.57383889235024,108.72176606765355,313.57383889235024,108.98843273432021C313.5293944479058,109.83287717876465,311.61828333679466,109.78843273432021,311.04050555901694,110.01065495654242C310.5960611145725,110.05509940098688,308.99606111457246,110.01065495654242,308.6405055590169,110.45509940098687C308.19606111457244,111.52176606765354,308.46272778123915,113.43287717876466,307.75161667012804,114.81065495654244C306.8182833367947,114.6773216232091,306.5960611145725,114.85509940098687,306.5960611145725,113.92176606765354C306.5960611145725,113.52176606765354,306.6849500034614,112.32176606765354,306.95161667012803,110.32176606765354C306.28495000346135,109.74398828987576,303.351616670128,110.72176606765355,303.5293944479058,109.12176606765354C303.70717222568356,107.43287717876466,306.6849500034614,109.3884327343202,307.57383889235024,108.09954384543131C307.57383889235024,108.09954384543131,307.57383889235024,108.09954384543131,307.57383889235024,108.09954384543131M316.8627277812391,100.9884327343202C317.35161667012795,100.89954384543132,317.30717222568353,101.83287717876465,317.35161667012795,101.8773216232091C316.8627277812391,104.1884327343202,315.5738388923502,107.78843273432021,314.9960611145724,110.27732162320909C314.72939444790575,111.61065495654243,314.5960611145724,111.92176606765354,314.5960611145724,112.36621051209798C315.7960611145724,112.36621051209798,319.6182833367946,110.85509940098687,320.951616670128,110.85509940098687C322.8182833367946,110.85509940098687,322.3293944479057,112.94398828987576,322.68495000346127,114.36621051209798C322.68495000346127,114.54398828987576,322.46272778123904,115.12176606765354,321.97383889235016,115.0773216232091C322.15161667012796,115.16621051209799,322.46272778123904,115.21065495654243,322.15161667012796,115.34398828987577C321.0849500034613,115.29954384543132,320.9071722256835,113.83287717876465,321.0405055590168,112.49954384543132C320.9960611145724,112.45509940098687,320.951616670128,112.36621051209798,320.8182833367946,112.27732162320909C318.55161667012794,112.27732162320909,315.92939444790574,113.96621051209799,313.6182833367946,114.54398828987576C313.2182833367946,114.58843273432021,312.951616670128,113.8773216232091,312.9071722256835,113.52176606765354C313.6627277812391,109.56621051209798,314.64050555901684,107.25509940098688,316.06272778123906,101.78843273432021C316.06272778123906,101.3884327343202,316.3293944479057,100.94398828987576,316.8627277812391,100.9884327343202C316.8627277812391,100.9884327343202,316.8627277812391,100.9884327343202,316.8627277812391,100.9884327343202M323.751616670128,112.23287717876465C323.751616670128,109.65509940098687,326.01828333679464,109.0773216232091,328.64050555901684,108.94398828987576C330.10717222568354,108.89954384543132,330.64050555901684,109.65509940098687,331.26272778123905,110.49954384543132C331.30717222568353,111.12176606765354,331.35161667012795,112.23287717876465,330.951616670128,112.36621051209798C329.8849500034613,112.27732162320909,327.7071722256835,112.94398828987576,326.55161667012794,112.85509940098687C326.4627277812391,112.94398828987576,326.4627277812391,112.98843273432021,326.4627277812391,112.98843273432021C326.4627277812391,113.12176606765354,326.9960611145724,113.34398828987577,328.10717222568354,113.65509940098687C329.0405055590168,113.65509940098687,331.1738388923502,114.05509940098688,329.4849500034613,114.63287717876464C329.0849500034613,115.25509940098688,327.97383889235016,114.89954384543132,326.9960611145724,114.89954384543132C325.7960611145724,114.6773216232091,323.751616670128,113.65509940098687,323.751616670128,112.23287717876465C323.751616670128,112.23287717876465,323.751616670128,112.23287717876465,323.751616670128,112.23287717876465M329.0405055590168,110.23287717876465C328.06272778123906,110.32176606765354,326.01828333679464,110.45509940098687,326.15161667012796,111.3884327343202C327.2182833367946,111.29954384543132,329.0849500034613,111.61065495654243,329.6627277812391,111.12176606765354C329.44050555901686,110.54398828987576,329.6182833367946,110.54398828987576,329.0405055590168,110.23287717876465C329.0405055590168,110.23287717876465,329.0405055590168,110.23287717876465,329.0405055590168,110.23287717876465M334.4182833367947,105.4773216232091C334.7293944479058,106.27732162320909,334.8182833367947,106.49954384543132,334.1960611145725,107.16621051209799C333.17383889235026,106.89954384543132,333.26272778123916,106.36621051209798,333.70717222568356,105.56621051209798C333.79606111457247,105.56621051209798,334.0627277812391,105.52176606765354,334.4182833367947,105.4773216232091C334.4182833367947,105.4773216232091,334.4182833367947,105.4773216232091,334.4182833367947,105.4773216232091M333.17383889235026,114.45509940098687C332.37383889235025,113.52176606765354,332.8182833367947,111.21065495654243,333.1293944479058,109.74398828987576C333.4405055590169,109.29954384543132,334.0182833367947,109.3884327343202,334.151616670128,110.01065495654242C334.1071722256836,111.61065495654243,334.46272778123915,113.21065495654243,334.0627277812391,114.63287717876464C333.70717222568356,114.72176606765353,333.70717222568356,114.63287717876464,333.17383889235026,114.45509940098687C333.17383889235026,114.45509940098687,333.17383889235026,114.45509940098687,333.17383889235026,114.45509940098687M345.9738388923502,109.56621051209798C346.0627277812391,110.54398828987576,346.19606111457244,110.01065495654242,345.351616670128,110.58843273432021C342.1071722256836,110.27732162320909,337.9738388923502,109.56621051209798,337.61828333679466,113.0773216232091C337.2627277812391,113.34398828987577,337.48495000346134,113.96621051209799,337.2627277812391,114.6773216232091C335.9738388923502,115.12176606765354,335.48495000346134,114.27732162320909,335.79606111457247,112.63287717876464C336.0627277812391,111.25509940098688,336.1071722256836,109.56621051209798,337.2182833367947,110.1884327343202C339.79606111457247,108.54398828987576,340.151616670128,108.32176606765354,344.99606111457246,109.34398828987577C345.1293944479058,109.56621051209798,345.66272778123914,109.52176606765354,345.9738388923502,109.56621051209798C345.9738388923502,109.56621051209798,345.9738388923502,109.56621051209798,345.9738388923502,109.56621051209798M358.151616670128,108.58843273432021C360.4627277812391,107.52176606765354,362.7738388923502,109.3884327343202,362.7738388923502,111.3884327343202C362.7738388923502,114.01065495654242,359.8405055590169,114.36621051209798,357.70717222568356,115.0773216232091C355.39606111457243,114.98843273432021,352.5960611145725,112.85509940098687,354.151616670128,110.41065495654243C355.1738388923502,109.61065495654243,356.4627277812391,108.85509940098687,358.151616670128,108.58843273432021C358.151616670128,108.58843273432021,358.151616670128,108.58843273432021,358.151616670128,108.58843273432021M355.351616670128,112.09954384543131C356.0627277812391,114.49954384543132,360.90717222568355,112.81065495654242,361.1738388923502,111.0773216232091C360.6405055590169,108.45509940098687,355.4405055590169,110.72176606765355,355.351616670128,112.09954384543131C355.351616670128,112.09954384543131,355.351616670128,112.09954384543131,355.351616670128,112.09954384543131M373.75161667012793,109.56621051209798C373.84050555901683,110.54398828987576,373.97383889235016,110.01065495654242,373.1293944479057,110.58843273432021C369.8849500034613,110.27732162320909,365.75161667012793,109.56621051209798,365.3960611145724,113.0773216232091C365.0405055590168,113.34398828987577,365.26272778123905,113.96621051209799,365.0405055590168,114.6773216232091C363.75161667012793,115.12176606765354,363.26272778123905,114.27732162320909,363.5738388923502,112.63287717876464C363.84050555901683,111.25509940098688,363.8849500034613,109.56621051209798,364.9960611145724,110.1884327343202C367.5738388923502,108.54398828987576,367.92939444790574,108.32176606765354,372.77383889235017,109.34398828987577C372.9071722256835,109.56621051209798,373.44050555901686,109.52176606765354,373.75161667012793,109.56621051209798C373.75161667012793,109.56621051209798,373.75161667012793,109.56621051209798,373.75161667012793,109.56621051209798M383.1293944479058,105.83287717876465C383.1293944479058,104.27732162320909,382.3738388923502,100.89954384543132,384.19606111457244,101.65509940098687C384.5071722256835,105.4773216232091,384.10717222568354,106.94398828987576,384.19606111457244,110.41065495654243C384.01828333679464,110.49954384543132,383.8405055590169,111.34398828987577,383.39606111457243,111.12176606765354C380.64050555901684,110.81065495654242,376.551616670128,110.76621051209798,375.1738388923502,112.41065495654243C375.44050555901686,113.16621051209799,376.4182833367947,113.56621051209798,377.44050555901686,113.56621051209798C378.15161667012796,113.56621051209798,381.8849500034613,112.89954384543132,383.30717222568353,112.76621051209798C383.61828333679466,112.98843273432021,383.0405055590169,113.65509940098687,382.8627277812391,113.74398828987576C381.7960611145724,114.09954384543131,377.44050555901686,115.61065495654243,375.61828333679466,114.85509940098687C374.19606111457244,114.63287717876464,372.8627277812391,112.49954384543132,374.01828333679464,111.29954384543132C375.5738388923502,109.65509940098687,379.2627277812391,109.25509940098688,382.81828333679465,109.3884327343202C382.8627277812391,108.41065495654243,383.1293944479058,107.21065495654243,383.1293944479058,105.83287717876465C383.1293944479058,105.83287717876465,383.1293944479058,105.83287717876465,383.1293944479058,105.83287717876465M385.12939444790584,112.23287717876465C385.12939444790584,109.65509940098687,387.3960611145725,109.0773216232091,390.01828333679475,108.94398828987576C391.48495000346134,108.89954384543132,392.01828333679475,109.65509940098687,392.6405055590169,110.49954384543132C392.6849500034614,111.12176606765354,392.72939444790586,112.23287717876465,392.32939444790577,112.36621051209798C391.26272778123916,112.27732162320909,389.08495000346136,112.94398828987576,387.9293944479058,112.85509940098687C387.84050555901695,112.94398828987576,387.84050555901695,112.98843273432021,387.84050555901695,112.98843273432021C387.84050555901695,113.12176606765354,388.37383889235025,113.34398828987577,389.48495000346134,113.65509940098687C390.41828333679473,113.65509940098687,392.55161667012806,114.05509940098688,390.8627277812392,114.63287717876464C390.4627277812391,115.25509940098688,389.351616670128,114.89954384543132,388.37383889235025,114.89954384543132C387.1738388923502,114.6773216232091,385.12939444790584,113.65509940098687,385.12939444790584,112.23287717876465C385.12939444790584,112.23287717876465,385.12939444790584,112.23287717876465,385.12939444790584,112.23287717876465M390.41828333679473,110.23287717876465C389.44050555901697,110.32176606765354,387.3960611145725,110.45509940098687,387.5293944479058,111.3884327343202C388.5960611145724,111.29954384543132,390.4627277812391,111.61065495654243,391.0405055590169,111.12176606765354C390.8182833367947,110.54398828987576,390.9960611145725,110.54398828987576,390.41828333679473,110.23287717876465C390.41828333679473,110.23287717876465,390.41828333679473,110.23287717876465,390.41828333679473,110.23287717876465M403.79606111457247,109.56621051209798C403.8849500034613,110.54398828987576,404.01828333679464,110.01065495654242,403.1738388923502,110.58843273432021C399.9293944479058,110.27732162320909,395.79606111457247,109.56621051209798,395.44050555901686,113.0773216232091C395.08495000346136,113.34398828987577,395.30717222568353,113.96621051209799,395.08495000346136,114.6773216232091C393.79606111457247,115.12176606765354,393.30717222568353,114.27732162320909,393.61828333679466,112.63287717876464C393.8849500034613,111.25509940098688,393.9293944479058,109.56621051209798,395.0405055590169,110.1884327343202C397.61828333679466,108.54398828987576,397.97383889235016,108.32176606765354,402.8182833367947,109.34398828987577C402.95161667012803,109.56621051209798,403.48495000346134,109.52176606765354,403.79606111457247,109.56621051209798C403.79606111457247,109.56621051209798,403.79606111457247,109.56621051209798,403.79606111457247,109.56621051209798" style="-webkit-tap-highlight-color: rgba(0, 0, 0, 0);"></path></svg>